ffmpeg version 4.1.3-0york1~16.04 Copyright (c) 2000-2019 the FFmpeg developers
  built with gcc 5.4.0 (Ubuntu 5.4.0-6ubuntu1~16.04.11) 20160609
  configuration: --prefix=/usr --extra-version='0york1~16.04' --toolchain=hardened --libdir=/usr/lib/x86_64-linux-gnu --incdir=/usr/include/x86_64-linux-gnu --arch=amd64 --enable-gpl --disable-stripping --enable-avresample --disable-filter=resample --enable-avisynth --enable-gnutls --enable-ladspa --enable-libaom --enable-libass --enable-libbluray --enable-libbs2b --enable-libcaca --enable-libcdio --enable-libcodec2 --enable-libflite --enable-libfontconfig --enable-libfreetype --enable-libfribidi --enable-libgme --enable-libgsm --enable-libjack --enable-libmp3lame --enable-libmysofa --enable-libopenjpeg --enable-libopenmpt --enable-libopus --enable-libpulse --enable-librsvg --enable-librubberband --enable-libshine --enable-libsnappy --enable-libsoxr --enable-libspeex --enable-libssh --enable-libtheora --enable-libtwolame --enable-libvidstab --enable-libvorbis --enable-libvpx --enable-libwavpack --enable-libwebp --enable-libx265 --enable-libxml2 --enable-libxvid --enable-libzmq --enable-libzvbi --enable-lv2 --enable-omx --enable-openal --enable-opengl --enable-sdl2 --enable-nonfree --enable-libfdk-aac --enable-libdc1394 --enable-libdrm --enable-libiec61883 --enable-chromaprint --enable-frei0r --enable-libx264 --enable-shared
  libavutil      56. 22.100 / 56. 22.100
  libavcodec     58. 35.100 / 58. 35.100
  libavformat    58. 20.100 / 58. 20.100
  libavdevice    58.  5.100 / 58.  5.100
  libavfilter     7. 40.101 /  7. 40.101
  libavresample   4.  0.  0 /  4.  0.  0
  libswscale      5.  3.100 /  5.  3.100
  libswresample   3.  3.100 /  3.  3.100
  libpostproc    55.  3.100 / 55.  3.100
Input #0, mov,mp4,m4a,3gp,3g2,mj2, from '/home/gdo/html/playtube//upload/videos/2019/05/fBEkuoHleH4EnKahYSbh_17_afe0a275b573b9192357b2d769acca3d_video.mp4':
  Metadata:
    major_brand     : mp42
    minor_version   : 0
    compatible_brands: mp42mp41
    creation_time   : 2017-09-29T12:43:24.000000Z
  Duration: 00:02:18.05, start: 0.000000, bitrate: 12013 kb/s
    Stream #0:0(eng): Video: h264 (Main) (avc1 / 0x31637661), yuv420p(tv, bt709), 1920x1080, 11691 kb/s, 25 fps, 25 tbr, 25k tbn, 50 tbc (default)
    Metadata:
      creation_time   : 2017-09-29T12:43:24.000000Z
      handler_name    : ?Mainconcept Video Media Handler
      encoder         : AVC Coding
    Stream #0:1(eng): Audio: aac (LC) (mp4a / 0x6134706D), 48000 Hz, stereo, fltp, 317 kb/s (default)
    Metadata:
      creation_time   : 2017-09-29T12:43:24.000000Z
      handler_name    : #Mainconcept MP4 Sound Media Handler
Stream mapping:
  Stream #0:0 -> #0:0 (h264 (native) -> h264 (libx264))
  Stream #0:1 -> #0:1 (aac (native) -> aac (native))
Press [q] to stop, [?] for help
[libx264 @ 0x564255e30fc0] using cpu capabilities: MMX2 SSE2Fast SSSE3 SSE4.2 AVX FMA3 BMI2 AVX2
[libx264 @ 0x564255e30fc0] profile High, level 4.0
[libx264 @ 0x564255e30fc0] 264 - core 155 r2917 0a84d98 - H.264/MPEG-4 AVC codec - Copyleft 2003-2018 - http://www.videolan.org/x264.html - options: cabac=1 ref=2 deblock=1:0:0 analyse=0x3:0x113 me=hex subme=6 psy=1 psy_rd=1.00:0.00 mixed_ref=1 me_range=16 chroma_me=1 trellis=1 8x8dct=1 cqm=0 deadzone=21,11 fast_pskip=1 chroma_qp_offset=-2 threads=1 lookahead_threads=1 sliced_threads=0 nr=0 decimate=1 interlaced=0 bluray_compat=0 constrained_intra=0 bframes=3 b_pyramid=2 b_adapt=1 b_bias=0 direct=1 weightb=1 open_gop=0 weightp=1 keyint=250 keyint_min=25 scenecut=40 intra_refresh=0 rc_lookahead=30 rc=crf mbtree=1 crf=26.0 qcomp=0.60 qpmin=0 qpmax=69 qpstep=4 ip_ratio=1.40 aq=1:1.00
Output #0, mp4, to '/home/gdo/html/playtube//upload/videos/2019/05/fBEkuoHleH4EnKahYSbh_17_afe0a275b573b9192357b2d769acca3d_video_1080p_converted.mp4':
  Metadata:
    major_brand     : mp42
    minor_version   : 0
    compatible_brands: mp42mp41
    encoder         : Lavf58.20.100
    Stream #0:0(eng): Video: h264 (libx264) (avc1 / 0x31637661), yuv420p(progressive), 1920x1080, q=-1--1, 25 fps, 12800 tbn, 25 tbc (default)
    Metadata:
      creation_time   : 2017-09-29T12:43:24.000000Z
      handler_name    : ?Mainconcept Video Media Handler
      encoder         : Lavc58.35.100 libx264
    Side data:
      cpb: bitrate max/min/avg: 0/0/0 buffer size: 0 vbv_delay: -1
    Stream #0:1(eng): Audio: aac (LC) (mp4a / 0x6134706D), 48000 Hz, stereo, fltp, 128 kb/s (default)
    Metadata:
      creation_time   : 2017-09-29T12:43:24.000000Z
      handler_name    : #Mainconcept MP4 Sound Media Handler
      encoder         : Lavc58.35.100 aac
frame=   19 fps=0.0 q=0.0 size=       0kB time=00:00:00.38 bitrate=   1.0kbits/s speed=0.722x    frame=   33 fps= 21 q=31.0 size=       0kB time=00:00:01.17 bitrate=   0.3kbits/s speed=0.76x    frame=   37 fps= 18 q=31.0 size=       0kB time=00:00:01.17 bitrate=   0.3kbits/s speed=0.567x    frame=   41 fps= 15 q=31.0 size=       0kB time=00:00:01.57 bitrate=   0.2kbits/s speed=0.571x    frame=   45 fps= 13 q=31.0 size=       0kB time=00:00:01.57 bitrate=   0.2kbits/s speed=0.47x    frame=   49 fps= 13 q=31.0 size=       0kB time=00:00:01.57 bitrate=   0.2kbits/s speed=0.406x    frame=   53 fps= 12 q=31.0 size=       0kB time=00:00:01.96 bitrate=   0.2kbits/s speed=0.445x    frame=   58 fps= 12 q=31.0 size=     256kB time=00:00:01.96 bitrate=1068.7kbits/s speed=0.393x    frame=   63 fps= 11 q=31.0 size=     256kB time=00:00:02.36 bitrate= 885.8kbits/s speed=0.418x    frame=   68 fps= 11 q=31.0 size=     256kB time=00:00:02.36 bitrate= 885.8kbits/s speed=0.377x    frame=   72 fps= 11 q=31.0 size=     256kB time=00:00:02.77 bitrate= 756.3kbits/s speed=0.405x    frame=   76 fps= 10 q=31.0 size=     256kB time=00:00:02.77 bitrate= 756.3kbits/s speed=0.37x    frame=   79 fps=9.8 q=31.0 size=     256kB time=00:00:02.79 bitrate= 750.5kbits/s speed=0.346x    frame=   84 fps=9.7 q=31.0 size=     512kB time=00:00:03.15 bitrate=1328.6kbits/s speed=0.363x    frame=   88 fps=9.5 q=31.0 size=     512kB time=00:00:03.15 bitrate=1328.6kbits/s speed=0.342x    frame=   91 fps=9.3 q=31.0 size=     512kB time=00:00:03.56 bitrate=1177.4kbits/s speed=0.363x    frame=   96 fps=9.2 q=31.0 size=     512kB time=00:00:03.56 bitrate=1177.4kbits/s speed=0.342x    frame=   99 fps=9.1 q=31.0 size=     512kB time=00:00:03.58 bitrate=1170.4kbits/s speed=0.328x    frame=  105 fps=9.1 q=31.0 size=     512kB time=00:00:03.96 bitrate=1057.1kbits/s speed=0.344x    frame=  109 fps=9.0 q=31.0 size=     768kB time=00:00:03.98 bitrate=1577.2kbits/s speed=0.331x    frame=  115 fps=9.1 q=31.0 size=     768kB time=00:00:04.37 bitrate=1438.7kbits/s speed=0.346x    frame=  119 fps=8.9 q=31.0 size=     768kB time=00:00:04.39 bitrate=1431.7kbits/s speed=0.329x    frame=  124 fps=8.9 q=31.0 size=     768kB time=00:00:04.75 bitrate=1322.6kbits/s speed=0.343x    frame=  129 fps=8.9 q=28.0 size=     768kB time=00:00:04.75 bitrate=1322.6kbits/s speed=0.329x    frame=  133 fps=8.9 q=31.0 size=     768kB time=00:00:05.16 bitrate=1218.7kbits/s speed=0.345x    frame=  139 fps=8.9 q=31.0 size=    1024kB time=00:00:05.16 bitrate=1624.9kbits/s speed=0.33x    frame=  144 fps=8.9 q=31.0 size=    1024kB time=00:00:05.56 bitrate=1506.6kbits/s speed=0.345x    frame=  149 fps=8.9 q=31.0 size=    1024kB time=00:00:05.58 bitrate=1500.9kbits/s speed=0.335x    frame=  155 fps=9.0 q=31.0 size=    1024kB time=00:00:05.97 bitrate=1404.4kbits/s speed=0.347x    frame=  159 fps=9.0 q=31.0 size=    1024kB time=00:00:05.99 bitrate=1399.4kbits/s speed=0.338x    frame=  165 fps=9.0 q=31.0 size=    1024kB time=00:00:06.35 bitrate=1319.6kbits/s speed=0.348x    frame=  169 fps=9.0 q=31.0 size=    1024kB time=00:00:06.37 bitrate=1315.2kbits/s speed=0.339x    frame=  175 fps=9.0 q=31.0 size=    1280kB time=00:00:06.76 bitrate=1550.6kbits/s speed=0.347x    frame=  178 fps=8.9 q=31.0 size=    1280kB time=00:00:06.76 bitrate=1550.6kbits/s speed=0.338x    frame=  183 fps=8.9 q=31.0 size=    1280kB time=00:00:07.16 bitrate=1462.9kbits/s speed=0.348x    frame=  189 fps=8.9 q=31.0 size=    1280kB time=00:00:07.16 bitrate=1462.9kbits/s speed=0.339x    frame=  198 fps=9.1 q=31.0 size=    1280kB time=00:00:07.57 bitrate=1384.6kbits/s speed=0.35x    frame=  207 fps=9.3 q=31.0 size=    1280kB time=00:00:07.95 bitrate=1317.8kbits/s speed=0.359x    frame=  213 fps=9.4 q=31.0 size=    1536kB time=00:00:08.36 bitrate=1504.7kbits/s speed=0.369x    frame=  221 fps=9.5 q=31.0 size=    1536kB time=00:00:08.76 bitrate=1435.1kbits/s speed=0.377x    frame=  228 fps=9.6 q=31.0 size=    1536kB time=00:00:08.76 bitrate=1435.1kbits/s speed=0.37x    frame=  235 fps=9.7 q=31.0 size=    1536kB time=00:00:09.17 bitrate=1371.7kbits/s speed=0.378x    frame=  239 fps=9.6 q=28.0 size=    1536kB time=00:00:09.19 bitrate=1368.5kbits/s speed=0.369x    frame=  245 fps=9.6 q=31.0 size=    1536kB time=00:00:09.55 bitrate=1316.6kbits/s speed=0.374x    frame=  249 fps=9.5 q=31.0 size=    1536kB time=00:00:09.55 bitrate=1316.6kbits/s speed=0.366x    frame=  254 fps=9.5 q=31.0 size=    1536kB time=00:00:09.96 bitrate=1263.0kbits/s speed=0.373x    frame=  259 fps=9.5 q=31.0 size=    1536kB time=00:00:09.96 bitrate=1263.0kbits/s speed=0.366x    frame=  264 fps=9.5 q=31.0 size=    1792kB time=00:00:10.36 bitrate=1415.9kbits/s speed=0.372x    frame=  269 fps=9.4 q=31.0 size=    1792kB time=00:00:10.36 bitrate=1415.9kbits/s speed=0.364x    frame=  274 fps=9.4 q=31.0 size=    1792kB time=00:00:10.77 bitrate=1362.7kbits/s speed=0.37x    frame=  279 fps=9.4 q=31.0 size=    1792kB time=00:00:10.77 bitrate=1362.7kbits/s speed=0.363x    frame=  284 fps=9.4 q=31.0 size=    1792kB time=00:00:11.17 bitrate=1313.3kbits/s speed=0.369x    frame=  288 fps=9.3 q=31.0 size=    1792kB time=00:00:11.17 bitrate=1313.3kbits/s speed=0.363x    frame=  291 fps=9.3 q=31.0 size=    2048kB time=00:00:11.56 bitrate=1451.0kbits/s speed=0.369x    frame=  296 fps=9.3 q=31.0 size=    2048kB time=00:00:11.56 bitrate=1451.0kbits/s speed=0.362x    frame=  301 fps=9.3 q=31.0 size=    2048kB time=00:00:11.96 bitrate=1401.9kbits/s speed=0.369x    frame=  306 fps=9.3 q=31.0 size=    2048kB time=00:00:11.96 bitrate=1401.9kbits/s speed=0.362x    frame=  310 fps=9.2 q=31.0 size=    2048kB time=00:00:12.37 bitrate=1355.9kbits/s speed=0.369x    frame=  315 fps=9.2 q=31.0 size=    2048kB time=00:00:12.37 bitrate=1355.9kbits/s speed=0.363x    frame=  319 fps=9.2 q=31.0 size=    2048kB time=00:00:12.39 bitrate=1353.6kbits/s speed=0.358x    frame=  325 fps=9.2 q=31.0 size=    2048kB time=00:00:12.77 bitrate=1312.9kbits/s speed=0.363x    frame=  329 fps=9.2 q=31.0 size=    2304kB time=00:00:12.80 bitrate=1474.6kbits/s speed=0.359x    frame=  335 fps=9.2 q=31.0 size=    2304kB time=00:00:13.16 bitrate=1434.0kbits/s speed=0.362x    frame=  341 fps=9.3 q=31.0 size=    2304kB time=00:00:13.56 bitrate=1391.1kbits/s speed=0.368x    frame=  347 fps=9.3 q=31.0 size=    2304kB time=00:00:13.56 bitrate=1391.1kbits/s speed=0.362x    frame=  353 fps=9.3 q=31.0 size=    2304kB time=00:00:13.97 bitrate=1350.8kbits/s speed=0.367x    frame=  359 fps=9.3 q=31.0 size=    2304kB time=00:00:13.97 bitrate=1350.8kbits/s speed=0.361x    frame=  366 fps=9.3 q=31.0 size=    2304kB time=00:00:14.37 bitrate=1312.7kbits/s speed=0.366x    frame=  373 fps=9.3 q=31.0 size=    2304kB time=00:00:14.76 bitrate=1278.5kbits/s speed=0.37x    frame=  379 fps=9.4 q=31.0 size=    2560kB time=00:00:14.76 bitrate=1420.6kbits/s speed=0.365x    frame=  384 fps=9.4 q=31.0 size=    2560kB time=00:00:15.16 bitrate=1382.6kbits/s speed=0.37x    frame=  389 fps=9.4 q=31.0 size=    2560kB time=00:00:15.18 bitrate=1380.7kbits/s speed=0.366x    frame=  396 fps=9.4 q=31.0 size=    2560kB time=00:00:15.57 bitrate=1346.7kbits/s speed=0.37x    frame=  401 fps=9.4 q=31.0 size=    2560kB time=00:00:15.97 bitrate=1312.5kbits/s speed=0.375x    frame=  407 fps=9.4 q=31.0 size=    2560kB time=00:00:15.97 bitrate=1312.5kbits/s speed=0.37x    frame=  413 fps=9.4 q=31.0 size=    2560kB time=00:00:16.36 bitrate=1281.7kbits/s speed=0.374x    frame=  419 fps=9.4 q=31.0 size=    2560kB time=00:00:16.36 bitrate=1281.7kbits/s speed=0.369x    frame=  425 fps=9.5 q=31.0 size=    2560kB time=00:00:16.76 bitrate=1250.7kbits/s speed=0.373x    frame=  431 fps=9.5 q=31.0 size=    2816kB time=00:00:17.17 bitrate=1343.3kbits/s speed=0.378x    frame=  437 fps=9.5 q=31.0 size=    2816kB time=00:00:17.17 bitrate=1343.3kbits/s speed=0.373x    frame=  443 fps=9.5 q=31.0 size=    2816kB time=00:00:17.57 bitrate=1312.3kbits/s speed=0.377x    frame=  449 fps=9.5 q=31.0 size=    2816kB time=00:00:17.57 bitrate=1312.3kbits/s speed=0.372x    frame=  455 fps=9.5 q=31.0 size=    2816kB time=00:00:17.96 bitrate=1284.3kbits/s speed=0.376x    frame=  461 fps=9.5 q=31.0 size=    2816kB time=00:00:18.36 bitrate=1255.9kbits/s speed=0.38x    frame=  466 fps=9.5 q=31.0 size=    3072kB time=00:00:18.36 bitrate=1370.1kbits/s speed=0.375x    frame=  472 fps=9.5 q=31.0 size=    3072kB time=00:00:18.77 bitrate=1340.5kbits/s speed=0.379x    frame=  478 fps=9.6 q=31.0 size=    3072kB time=00:00:18.77 bitrate=1340.5kbits/s speed=0.375x    frame=  484 fps=9.6 q=31.0 size=    3072kB time=00:00:19.17 bitrate=1312.2kbits/s speed=0.379x    frame=  489 fps=9.6 q=31.0 size=    3072kB time=00:00:19.17 bitrate=1312.2kbits/s speed=0.375x    frame=  495 fps=9.6 q=31.0 size=    3072kB time=00:00:19.56 bitrate=1286.4kbits/s speed=0.379x    frame=  501 fps=9.6 q=31.0 size=    3072kB time=00:00:19.96 bitrate=1260.3kbits/s speed=0.383x    frame=  507 fps=9.6 q=31.0 size=    3072kB time=00:00:19.96 bitrate=1260.3kbits/s speed=0.379x    frame=  513 fps=9.6 q=31.0 size=    3328kB time=00:00:20.37 bitrate=1338.2kbits/s speed=0.382x    frame=  519 fps=9.6 q=31.0 size=    3328kB time=00:00:20.37 bitrate=1338.2kbits/s speed=0.378x    frame=  525 fps=9.6 q=31.0 size=    3328kB time=00:00:20.77 bitrate=1312.1kbits/s speed=0.381x    frame=  532 fps=9.7 q=31.0 size=    3328kB time=00:00:21.16 bitrate=1288.3kbits/s speed=0.384x    frame=  537 fps=9.7 q=31.0 size=    3328kB time=00:00:21.16 bitrate=1288.3kbits/s speed=0.381x    frame=  543 fps=9.7 q=31.0 size=    3328kB time=00:00:21.56 bitrate=1264.1kbits/s speed=0.384x    frame=  549 fps=9.7 q=31.0 size=    3328kB time=00:00:21.56 bitrate=1264.1kbits/s speed=0.381x    frame=  554 fps=9.7 q=31.0 size=    3328kB time=00:00:21.97 bitrate=1240.7kbits/s speed=0.384x    frame=  559 fps=9.7 q=31.0 size=    3584kB time=00:00:21.99 bitrate=1334.9kbits/s speed=0.38x    frame=  565 fps=9.7 q=31.0 size=    3584kB time=00:00:22.37 bitrate=1312.0kbits/s speed=0.384x    frame=  569 fps=9.7 q=31.0 size=    3584kB time=00:00:22.50 bitrate=1304.5kbits/s speed=0.382x    frame=  576 fps=9.7 q=31.0 size=    3584kB time=00:00:22.76 bitrate=1289.9kbits/s speed=0.383x    frame=  582 fps=9.7 q=31.0 size=    3584kB time=00:00:23.16 bitrate=1267.3kbits/s speed=0.386x    frame=  588 fps=9.7 q=31.0 size=    3584kB time=00:00:23.16 bitrate=1267.3kbits/s speed=0.382x    frame=  593 fps=9.7 q=31.0 size=    3584kB time=00:00:23.57 bitrate=1245.5kbits/s speed=0.386x    frame=  597 fps=9.7 q=31.0 size=    3584kB time=00:00:23.57 bitrate=1245.5kbits/s speed=0.383x    frame=  602 fps=9.7 q=31.0 size=    3584kB time=00:00:23.97 bitrate=1224.4kbits/s speed=0.386x    frame=  608 fps=9.7 q=31.0 size=    3840kB time=00:00:23.97 bitrate=1311.9kbits/s speed=0.382x    frame=  613 fps=9.7 q=31.0 size=    3840kB time=00:00:24.36 bitrate=1291.2kbits/s speed=0.385x    frame=  618 fps=9.7 q=31.0 size=    3840kB time=00:00:24.36 bitrate=1291.2kbits/s speed=0.382x    frame=  622 fps=9.7 q=31.0 size=    3840kB time=00:00:24.76 bitrate=1270.1kbits/s speed=0.385x    frame=  628 fps=9.6 q=31.0 size=    3840kB time=00:00:24.76 bitrate=1270.1kbits/s speed=0.38x    frame=  634 fps=9.6 q=31.0 size=    3840kB time=00:00:25.17 bitrate=1249.6kbits/s speed=0.383x    frame=  639 fps=9.6 q=31.0 size=    3840kB time=00:00:25.19 bitrate=1248.6kbits/s speed=0.38x    frame=  645 fps=9.6 q=31.0 size=    4096kB time=00:00:25.57 bitrate=1311.8kbits/s speed=0.383x    frame=  649 fps=9.6 q=31.0 size=    4096kB time=00:00:25.60 bitrate=1310.7kbits/s speed=0.38x    frame=  655 fps=9.6 q=31.0 size=    4096kB time=00:00:25.96 bitrate=1292.4kbits/s speed=0.382x    frame=  659 fps=9.6 q=31.0 size=    4096kB time=00:00:25.96 bitrate=1292.4kbits/s speed=0.379x    frame=  664 fps=9.6 q=31.0 size=    4096kB time=00:00:26.36 bitrate=1272.6kbits/s speed=0.382x    frame=  669 fps=9.6 q=31.0 size=    4096kB time=00:00:26.36 bitrate=1272.6kbits/s speed=0.379x    frame=  673 fps=9.6 q=31.0 size=    4096kB time=00:00:26.77 bitrate=1253.3kbits/s speed=0.381x    frame=  678 fps=9.6 q=31.0 size=    4096kB time=00:00:26.77 bitrate=1253.3kbits/s speed=0.379x    frame=  683 fps=9.6 q=31.0 size=    4096kB time=00:00:27.15 bitrate=1235.6kbits/s speed=0.381x    frame=  688 fps=9.6 q=31.0 size=    4352kB time=00:00:27.15 bitrate=1312.8kbits/s speed=0.378x    frame=  692 fps=9.6 q=31.0 size=    4352kB time=00:00:27.56 bitrate=1293.5kbits/s speed=0.381x    frame=  697 fps=9.5 q=31.0 size=    4352kB time=00:00:27.56 bitrate=1293.5kbits/s speed=0.377x    frame=  701 fps=9.5 q=31.0 size=    4352kB time=00:00:27.96 bitrate=1274.7kbits/s speed=0.38x    frame=  706 fps=9.5 q=31.0 size=    4352kB time=00:00:27.96 bitrate=1274.7kbits/s speed=0.377x    frame=  711 fps=9.5 q=31.0 size=    4352kB time=00:00:28.37 bitrate=1256.5kbits/s speed=0.38x    frame=  716 fps=9.5 q=31.0 size=    4608kB time=00:00:28.37 bitrate=1330.4kbits/s speed=0.377x    frame=  721 fps=9.5 q=31.0 size=    4608kB time=00:00:28.75 bitrate=1312.7kbits/s speed=0.379x    frame=  726 fps=9.5 q=31.0 size=    4608kB time=00:00:28.75 bitrate=1312.7kbits/s speed=0.376x    frame=  731 fps=9.5 q=31.0 size=    4608kB time=00:00:29.16 bitrate=1294.4kbits/s speed=0.379x    frame=  736 fps=9.5 q=31.0 size=    4608kB time=00:00:29.16 bitrate=1294.4kbits/s speed=0.376x    frame=  741 fps=9.5 q=31.0 size=    4608kB time=00:00:29.56 bitrate=1276.7kbits/s speed=0.378x    frame=  745 fps=9.5 q=31.0 size=    4608kB time=00:00:29.56 bitrate=1276.7kbits/s speed=0.376x    frame=  749 fps=9.4 q=31.0 size=    4608kB time=00:00:29.58 bitrate=1275.8kbits/s speed=0.373x    frame=  755 fps=9.5 q=31.0 size=    4864kB time=00:00:29.97 bitrate=1329.4kbits/s speed=0.375x    frame=  759 fps=9.4 q=31.0 size=    4864kB time=00:00:29.99 bitrate=1328.4kbits/s speed=0.373x    frame=  765 fps=9.4 q=31.0 size=    4864kB time=00:00:30.35 bitrate=1312.6kbits/s speed=0.375x    frame=  769 fps=9.4 q=31.0 size=    4864kB time=00:00:30.37 bitrate=1311.7kbits/s speed=0.373x    frame=  775 fps=9.4 q=31.0 size=    4864kB time=00:00:30.76 bitrate=1295.3kbits/s speed=0.375x    frame=  779 fps=9.4 q=31.0 size=    4864kB time=00:00:30.78 bitrate=1294.4kbits/s speed=0.372x    frame=  784 fps=9.4 q=31.0 size=    4864kB time=00:00:31.16 bitrate=1278.4kbits/s speed=0.375x    frame=  788 fps=9.4 q=31.0 size=    4864kB time=00:00:31.16 bitrate=1278.4kbits/s speed=0.372x    frame=  793 fps=9.4 q=31.0 size=    5120kB time=00:00:31.57 bitrate=1328.4kbits/s speed=0.374x    frame=  798 fps=9.4 q=31.0 size=    5120kB time=00:00:31.57 bitrate=1328.4kbits/s speed=0.372x    frame=  802 fps=9.4 q=31.0 size=    5120kB time=00:00:31.95 bitrate=1312.5kbits/s speed=0.374x    frame=  806 fps=9.4 q=31.0 size=    5120kB time=00:00:31.95 bitrate=1312.5kbits/s speed=0.372x    frame=  809 fps=9.3 q=31.0 size=    5120kB time=00:00:31.97 bitrate=1311.6kbits/s speed=0.369x    frame=  814 fps=9.3 q=31.0 size=    5376kB time=00:00:32.36 bitrate=1360.8kbits/s speed=0.371x    frame=  818 fps=9.3 q=31.0 size=    5376kB time=00:00:32.36 bitrate=1360.8kbits/s speed=0.369x    frame=  822 fps=9.3 q=31.0 size=    5376kB time=00:00:32.76 bitrate=1344.0kbits/s speed=0.371x    frame=  826 fps=9.3 q=31.0 size=    5376kB time=00:00:32.76 bitrate=1344.0kbits/s speed=0.369x    frame=  829 fps=9.3 q=31.0 size=    5376kB time=00:00:32.78 bitrate=1343.1kbits/s speed=0.367x    frame=  834 fps=9.3 q=31.0 size=    5376kB time=00:00:33.17 bitrate=1327.6kbits/s speed=0.369x    frame=  838 fps=9.3 q=31.0 size=    5632kB time=00:00:33.17 bitrate=1390.8kbits/s speed=0.367x    frame=  842 fps=9.3 q=31.0 size=    5632kB time=00:00:33.55 bitrate=1374.9kbits/s speed=0.369x    frame=  846 fps=9.2 q=31.0 size=    5632kB time=00:00:33.55 bitrate=1374.9kbits/s speed=0.367x    frame=  849 fps=9.2 q=31.0 size=    5632kB time=00:00:33.57 bitrate=1374.0kbits/s speed=0.365x    frame=  854 fps=9.2 q=31.0 size=    5632kB time=00:00:33.96 bitrate=1358.5kbits/s speed=0.367x    frame=  858 fps=9.2 q=31.0 size=    5632kB time=00:00:33.96 bitrate=1358.5kbits/s speed=0.365x    frame=  862 fps=9.2 q=31.0 size=    5888kB time=00:00:34.36 bitrate=1403.5kbits/s speed=0.367x    frame=  866 fps=9.2 q=31.0 size=    5888kB time=00:00:34.36 bitrate=1403.5kbits/s speed=0.365x    frame=  871 fps=9.2 q=31.0 size=    5888kB time=00:00:34.77 bitrate=1387.1kbits/s speed=0.367x    frame=  876 fps=9.2 q=31.0 size=    5888kB time=00:00:34.77 bitrate=1387.1kbits/s speed=0.365x    frame=  879 fps=9.2 q=31.0 size=    5888kB time=00:00:34.79 bitrate=1386.3kbits/s speed=0.363x    frame=  885 fps=9.2 q=31.0 size=    5888kB time=00:00:35.17 bitrate=1371.1kbits/s speed=0.365x    frame=  889 fps=9.2 q=31.0 size=    6144kB time=00:00:35.17 bitrate=1430.8kbits/s speed=0.363x    frame=  894 fps=9.1 q=31.0 size=    6144kB time=00:00:35.56 bitrate=1415.3kbits/s speed=0.364x    frame=  899 fps=9.1 q=31.0 size=    6144kB time=00:00:35.56 bitrate=1415.3kbits/s speed=0.361x    frame=  903 fps=9.1 q=31.0 size=    6144kB time=00:00:35.96 bitrate=1399.4kbits/s speed=0.364x    frame=  907 fps=9.1 q=31.0 size=    6400kB time=00:00:35.96 bitrate=1457.7kbits/s speed=0.362x    frame=  911 fps=9.1 q=31.0 size=    6400kB time=00:00:36.37 bitrate=1441.4kbits/s speed=0.364x    frame=  915 fps=9.1 q=31.0 size=    6400kB time=00:00:36.37 bitrate=1441.4kbits/s speed=0.362x    frame=  919 fps=9.1 q=31.0 size=    6400kB time=00:00:36.39 bitrate=1440.6kbits/s speed=0.36x    frame=  925 fps=9.1 q=31.0 size=    6400kB time=00:00:36.77 bitrate=1425.5kbits/s speed=0.362x    frame=  929 fps=9.1 q=31.0 size=    6400kB time=00:00:36.80 bitrate=1424.7kbits/s speed=0.36x    frame=  935 fps=9.1 q=31.0 size=    6656kB time=00:00:37.16 bitrate=1467.2kbits/s speed=0.361x    frame=  939 fps=9.1 q=31.0 size=    6656kB time=00:00:37.16 bitrate=1467.2kbits/s speed=0.359x    frame=  944 fps=9.1 q=31.0 size=    6656kB time=00:00:37.56 bitrate=1451.4kbits/s speed=0.361x    frame=  949 fps=9.1 q=31.0 size=    6656kB time=00:00:37.56 bitrate=1451.4kbits/s speed=0.359x    frame=  954 fps=9.1 q=31.0 size=    6656kB time=00:00:37.97 bitrate=1435.9kbits/s speed=0.361x    frame=  958 fps=9.1 q=31.0 size=    6912kB time=00:00:37.97 bitrate=1491.1kbits/s speed=0.359x    frame=  962 fps=9.1 q=31.0 size=    6912kB time=00:00:38.37 bitrate=1475.4kbits/s speed=0.361x    frame=  967 fps=9.0 q=31.0 size=    6912kB time=00:00:38.37 bitrate=1475.4kbits/s speed=0.359x    frame=  972 fps=9.0 q=31.0 size=    6912kB time=00:00:38.76 bitrate=1460.8kbits/s speed=0.361x    frame=  977 fps=9.0 q=31.0 size=    6912kB time=00:00:38.76 bitrate=1460.8kbits/s speed=0.359x    frame=  981 fps=9.0 q=31.0 size=    6912kB time=00:00:39.16 bitrate=1445.7kbits/s speed=0.361x    frame=  985 fps=9.0 q=31.0 size=    6912kB time=00:00:39.16 bitrate=1445.7kbits/s speed=0.359x    frame=  989 fps=9.0 q=31.0 size=    7168kB time=00:00:39.16 bitrate=1499.2kbits/s speed=0.357x    frame=  993 fps=9.0 q=31.0 size=    7168kB time=00:00:39.57 bitrate=1483.8kbits/s speed=0.359x    frame=  998 fps=9.0 q=31.0 size=    7168kB time=00:00:39.57 bitrate=1483.8kbits/s speed=0.358x    frame= 1003 fps=9.0 q=31.0 size=    7168kB time=00:00:39.97 bitrate=1468.8kbits/s speed=0.359x    frame= 1008 fps=9.0 q=31.0 size=    7168kB time=00:00:39.97 bitrate=1468.8kbits/s speed=0.357x    frame= 1013 fps=9.0 q=31.0 size=    7168kB time=00:00:40.36 bitrate=1454.8kbits/s speed=0.359x    frame= 1018 fps=9.0 q=31.0 size=    7424kB time=00:00:40.36 bitrate=1506.8kbits/s speed=0.357x    frame= 1023 fps=9.0 q=31.0 size=    7424kB time=00:00:40.76 bitrate=1491.8kbits/s speed=0.359x    frame= 1028 fps=9.0 q=31.0 size=    7424kB time=00:00:40.76 bitrate=1491.8kbits/s speed=0.357x    frame= 1032 fps=9.0 q=31.0 size=    7424kB time=00:00:41.17 bitrate=1477.1kbits/s speed=0.359x    frame= 1036 fps=9.0 q=31.0 size=    7424kB time=00:00:41.17 bitrate=1477.1kbits/s speed=0.357x    frame= 1041 fps=9.0 q=31.0 size=    7680kB time=00:00:41.57 bitrate=1513.2kbits/s speed=0.359x    frame= 1046 fps=9.0 q=31.0 size=    7680kB time=00:00:41.57 bitrate=1513.2kbits/s speed=0.357x    frame= 1049 fps=9.0 q=31.0 size=    7680kB time=00:00:41.72 bitrate=1507.7kbits/s speed=0.356x    frame= 1054 fps=9.0 q=31.0 size=    7680kB time=00:00:41.96 bitrate=1499.3kbits/s speed=0.357x    frame= 1058 fps=9.0 q=31.0 size=    7680kB time=00:00:41.96 bitrate=1499.3kbits/s speed=0.355x    frame= 1063 fps=9.0 q=31.0 size=    7680kB time=00:00:42.36 bitrate=1485.0kbits/s speed=0.357x    frame= 1068 fps=9.0 q=31.0 size=    7680kB time=00:00:42.36 bitrate=1485.0kbits/s speed=0.355x    frame= 1073 fps=8.9 q=31.0 size=    7680kB time=00:00:42.77 bitrate=1470.9kbits/s speed=0.357x    frame= 1078 fps=8.9 q=31.0 size=    7936kB time=00:00:42.77 bitrate=1519.9kbits/s speed=0.355x    frame= 1083 fps=8.9 q=31.0 size=    7936kB time=00:00:43.17 bitrate=1505.7kbits/s speed=0.357x    frame= 1087 fps=8.9 q=31.0 size=    7936kB time=00:00:43.17 bitrate=1505.7kbits/s speed=0.355x    frame= 1092 fps=8.9 q=31.0 size=    7936kB time=00:00:43.56 bitrate=1492.4kbits/s speed=0.357x    frame= 1097 fps=8.9 q=31.0 size=    7936kB time=00:00:43.56 bitrate=1492.4kbits/s speed=0.355x    frame= 1102 fps=8.9 q=31.0 size=    7936kB time=00:00:43.96 bitrate=1478.6kbits/s speed=0.357x    frame= 1107 fps=8.9 q=31.0 size=    7936kB time=00:00:43.96 bitrate=1478.6kbits/s speed=0.355x    frame= 1112 fps=8.9 q=31.0 size=    7936kB time=00:00:44.37 bitrate=1465.1kbits/s speed=0.357x    frame= 1117 fps=8.9 q=31.0 size=    8192kB time=00:00:44.37 bitrate=1512.4kbits/s speed=0.355x    frame= 1123 fps=8.9 q=31.0 size=    8192kB time=00:00:44.77 bitrate=1498.7kbits/s speed=0.357x    frame= 1129 fps=9.0 q=31.0 size=    8192kB time=00:00:44.77 bitrate=1498.7kbits/s speed=0.355x    frame= 1135 fps=9.0 q=31.0 size=    8448kB time=00:00:45.16 bitrate=1532.4kbits/s speed=0.356x    frame= 1142 fps=9.0 q=31.0 size=    8448kB time=00:00:45.56 bitrate=1518.8kbits/s speed=0.358x    frame= 1148 fps=9.0 q=31.0 size=    8448kB time=00:00:45.56 bitrate=1518.8kbits/s speed=0.356x    frame= 1153 fps=9.0 q=31.0 size=    8448kB time=00:00:45.97 bitrate=1505.4kbits/s speed=0.358x    frame= 1159 fps=9.0 q=31.0 size=    8448kB time=00:00:45.97 bitrate=1505.4kbits/s speed=0.356x    frame= 1165 fps=9.0 q=31.0 size=    8704kB time=00:00:46.37 bitrate=1537.4kbits/s speed=0.358x    frame= 1169 fps=9.0 q=31.0 size=    8704kB time=00:00:46.42 bitrate=1536.0kbits/s speed=0.357x    frame= 1177 fps=9.0 q=31.0 size=    8704kB time=00:00:46.76 bitrate=1524.8kbits/s speed=0.358x    frame= 1182 fps=9.0 q=31.0 size=    8704kB time=00:00:47.16 bitrate=1511.7kbits/s speed=0.36x    frame= 1188 fps=9.0 q=31.0 size=    8704kB time=00:00:47.16 bitrate=1511.7kbits/s speed=0.358x    frame= 1194 fps=9.0 q=31.0 size=    8704kB time=00:00:47.57 bitrate=1498.8kbits/s speed=0.36x    frame= 1201 fps=9.0 q=31.0 size=    8960kB time=00:00:47.97 bitrate=1529.9kbits/s speed=0.361x    frame= 1206 fps=9.0 q=31.0 size=    8960kB time=00:00:47.97 bitrate=1529.9kbits/s speed=0.36x    frame= 1211 fps=9.0 q=31.0 size=    8960kB time=00:00:48.36 bitrate=1517.7kbits/s speed=0.361x    frame= 1218 fps=9.1 q=31.0 size=    8960kB time=00:00:48.36 bitrate=1517.7kbits/s speed=0.36x    frame= 1225 fps=9.1 q=31.0 size=    8960kB time=00:00:48.76 bitrate=1505.1kbits/s speed=0.361x    frame= 1231 fps=9.1 q=31.0 size=    8960kB time=00:00:49.17 bitrate=1492.7kbits/s speed=0.362x    frame= 1237 fps=9.1 q=31.0 size=    9216kB time=00:00:49.17 bitrate=1535.3kbits/s speed=0.361x    frame= 1243 fps=9.1 q=31.0 size=    9216kB time=00:00:49.57 bitrate=1522.8kbits/s speed=0.362x    frame= 1249 fps=9.1 q=31.0 size=    9216kB time=00:00:49.57 bitrate=1522.8kbits/s speed=0.361x    frame= 1254 fps=9.1 q=31.0 size=    9216kB time=00:00:49.96 bitrate=1511.1kbits/s speed=0.362x    frame= 1259 fps=9.1 q=31.0 size=    9216kB time=00:00:49.98 bitrate=1510.4kbits/s speed=0.361x    frame= 1266 fps=9.1 q=31.0 size=    9216kB time=00:00:50.36 bitrate=1498.9kbits/s speed=0.362x    frame= 1271 fps=9.1 q=31.0 size=    9472kB time=00:00:50.77 bitrate=1528.3kbits/s speed=0.364x    frame= 1277 fps=9.1 q=31.0 size=    9472kB time=00:00:50.77 bitrate=1528.3kbits/s speed=0.362x    frame= 1283 fps=9.1 q=28.0 size=    9472kB time=00:00:51.15 bitrate=1516.8kbits/s speed=0.364x    frame= 1289 fps=9.1 q=31.0 size=    9472kB time=00:00:51.15 bitrate=1516.8kbits/s speed=0.362x    frame= 1294 fps=9.1 q=31.0 size=    9472kB time=00:00:51.56 bitrate=1504.9kbits/s speed=0.363x    frame= 1299 fps=9.1 q=31.0 size=    9472kB time=00:00:51.56 bitrate=1504.9kbits/s speed=0.362x    frame= 1304 fps=9.1 q=31.0 size=    9728kB time=00:00:51.96 bitrate=1533.5kbits/s speed=0.363x    frame= 1309 fps=9.1 q=31.0 size=    9728kB time=00:00:51.96 bitrate=1533.5kbits/s speed=0.362x    frame= 1314 fps=9.1 q=31.0 size=    9728kB time=00:00:52.37 bitrate=1521.6kbits/s speed=0.363x    frame= 1319 fps=9.1 q=31.0 size=    9728kB time=00:00:52.37 bitrate=1521.6kbits/s speed=0.362x    frame= 1324 fps=9.1 q=31.0 size=    9728kB time=00:00:52.75 bitrate=1510.5kbits/s speed=0.363x    frame= 1329 fps=9.1 q=31.0 size=    9728kB time=00:00:52.75 bitrate=1510.5kbits/s speed=0.361x    frame= 1334 fps=9.1 q=31.0 size=    9728kB time=00:00:53.16 bitrate=1499.0kbits/s speed=0.363x    frame= 1339 fps=9.1 q=31.0 size=    9984kB time=00:00:53.16 bitrate=1538.5kbits/s speed=0.361x    frame= 1345 fps=9.1 q=31.0 size=    9984kB time=00:00:53.56 bitrate=1526.8kbits/s speed=0.363x    frame= 1349 fps=9.1 q=31.0 size=    9984kB time=00:00:53.69 bitrate=1523.2kbits/s speed=0.362x    frame= 1355 fps=9.1 q=31.0 size=    9984kB time=00:00:53.97 bitrate=1515.4kbits/s speed=0.363x    frame= 1359 fps=9.1 q=31.0 size=    9984kB time=00:00:53.99 bitrate=1514.8kbits/s speed=0.362x    frame= 1365 fps=9.1 q=31.0 size=    9984kB time=00:00:54.35 bitrate=1504.7kbits/s speed=0.363x    frame= 1369 fps=9.1 q=31.0 size=    9984kB time=00:00:54.37 bitrate=1504.1kbits/s speed=0.362x    frame= 1376 fps=9.1 q=31.0 size=   10240kB time=00:00:54.76 bitrate=1531.8kbits/s speed=0.363x    frame= 1381 fps=9.1 q=31.0 size=   10240kB time=00:00:55.16 bitrate=1520.6kbits/s speed=0.364x    frame= 1387 fps=9.1 q=31.0 size=   10240kB time=00:00:55.16 bitrate=1520.6kbits/s speed=0.363x    frame= 1392 fps=9.1 q=31.0 size=   10240kB time=00:00:55.57 bitrate=1509.5kbits/s speed=0.364x    frame= 1398 fps=9.1 q=31.0 size=   10240kB time=00:00:55.57 bitrate=1509.5kbits/s speed=0.363x    frame= 1403 fps=9.1 q=31.0 size=   10240kB time=00:00:55.95 bitrate=1499.1kbits/s speed=0.364x    frame= 1408 fps=9.1 q=31.0 size=   10240kB time=00:00:55.95 bitrate=1499.1kbits/s speed=0.363x    frame= 1413 fps=9.1 q=31.0 size=   10240kB time=00:00:56.36 bitrate=1488.3kbits/s speed=0.364x    frame= 1419 fps=9.1 q=31.0 size=   10240kB time=00:00:56.36 bitrate=1488.3kbits/s speed=0.363x    frame= 1424 fps=9.1 q=31.0 size=   10240kB time=00:00:56.76 bitrate=1477.7kbits/s speed=0.364x    frame= 1429 fps=9.1 q=31.0 size=   10496kB time=00:00:56.76 bitrate=1514.6kbits/s speed=0.363x    frame= 1434 fps=9.1 q=31.0 size=   10496kB time=00:00:57.17 bitrate=1503.9kbits/s speed=0.364x    frame= 1439 fps=9.1 q=31.0 size=   10496kB time=00:00:57.17 bitrate=1503.9kbits/s speed=0.363x    frame= 1444 fps=9.1 q=31.0 size=   10496kB time=00:00:57.55 bitrate=1493.9kbits/s speed=0.364x    frame= 1449 fps=9.1 q=31.0 size=   10496kB time=00:00:57.55 bitrate=1493.9kbits/s speed=0.363x    frame= 1454 fps=9.1 q=31.0 size=   10496kB time=00:00:57.96 bitrate=1483.4kbits/s speed=0.364x    frame= 1459 fps=9.1 q=31.0 size=   10496kB time=00:00:57.96 bitrate=1483.4kbits/s speed=0.363x    frame= 1463 fps=9.1 q=31.0 size=   10752kB time=00:00:58.36 bitrate=1509.1kbits/s speed=0.364x    frame= 1468 fps=9.1 q=31.0 size=   10752kB time=00:00:58.36 bitrate=1509.1kbits/s speed=0.363x    frame= 1473 fps=9.1 q=31.0 size=   10752kB time=00:00:58.77 bitrate=1498.7kbits/s speed=0.364x    frame= 1478 fps=9.1 q=31.0 size=   10752kB time=00:00:58.77 bitrate=1498.7kbits/s speed=0.363x    frame= 1483 fps=9.1 q=31.0 size=   10752kB time=00:00:59.17 bitrate=1488.4kbits/s speed=0.364x    frame= 1488 fps=9.1 q=31.0 size=   10752kB time=00:00:59.17 bitrate=1488.4kbits/s speed=0.363x    frame= 1493 fps=9.1 q=31.0 size=   11008kB time=00:00:59.56 bitrate=1514.0kbits/s speed=0.364x    frame= 1498 fps=9.1 q=31.0 size=   11008kB time=00:00:59.56 bitrate=1514.0kbits/s speed=0.363x    frame= 1503 fps=9.1 q=31.0 size=   11008kB time=00:00:59.96 bitrate=1503.8kbits/s speed=0.364x    frame= 1508 fps=9.1 q=31.0 size=   11008kB time=00:00:59.96 bitrate=1503.8kbits/s speed=0.362x    frame= 1513 fps=9.1 q=31.0 size=   11008kB time=00:01:00.37 bitrate=1493.7kbits/s speed=0.364x    frame= 1518 fps=9.1 q=31.0 size=   11008kB time=00:01:00.37 bitrate=1493.7kbits/s speed=0.363x    frame= 1523 fps=9.1 q=31.0 size=   11264kB time=00:01:00.77 bitrate=1518.2kbits/s speed=0.364x    frame= 1528 fps=9.1 q=31.0 size=   11264kB time=00:01:00.77 bitrate=1518.2kbits/s speed=0.363x    frame= 1533 fps=9.1 q=31.0 size=   11264kB time=00:01:01.16 bitrate=1508.7kbits/s speed=0.364x    frame= 1539 fps=9.1 q=31.0 size=   11264kB time=00:01:01.16 bitrate=1508.7kbits/s speed=0.363x    frame= 1543 fps=9.1 q=31.0 size=   11264kB time=00:01:01.56 bitrate=1498.8kbits/s speed=0.364x    frame= 1549 fps=9.1 q=31.0 size=   11520kB time=00:01:01.56 bitrate=1532.8kbits/s speed=0.363x    frame= 1555 fps=9.1 q=31.0 size=   11520kB time=00:01:01.97 bitrate=1522.8kbits/s speed=0.364x    frame= 1561 fps=9.1 q=31.0 size=   11520kB time=00:01:02.37 bitrate=1512.9kbits/s speed=0.365x    frame= 1567 fps=9.1 q=31.0 size=   11520kB time=00:01:02.37 bitrate=1512.9kbits/s speed=0.364x    frame= 1574 fps=9.1 q=31.0 size=   11520kB time=00:01:02.76 bitrate=1503.6kbits/s speed=0.365x    frame= 1579 fps=9.1 q=31.0 size=   11520kB time=00:01:02.78 bitrate=1503.1kbits/s speed=0.364x    frame= 1586 fps=9.2 q=31.0 size=   11520kB time=00:01:03.16 bitrate=1494.0kbits/s speed=0.365x    frame= 1592 fps=9.2 q=31.0 size=   11520kB time=00:01:03.57 bitrate=1484.5kbits/s speed=0.366x    frame= 1599 fps=9.2 q=31.0 size=   11776kB time=00:01:03.57 bitrate=1517.5kbits/s speed=0.365x    frame= 1604 fps=9.2 q=31.0 size=   11776kB time=00:01:03.97 bitrate=1507.8kbits/s speed=0.366x    frame= 1609 fps=9.2 q=31.0 size=   11776kB time=00:01:03.97 bitrate=1507.8kbits/s speed=0.365x    frame= 1615 fps=9.2 q=31.0 size=   11776kB time=00:01:04.36 bitrate=1498.8kbits/s speed=0.366x    frame= 1621 fps=9.2 q=31.0 size=   11776kB time=00:01:04.76 bitrate=1489.5kbits/s speed=0.367x    frame= 1628 fps=9.2 q=31.0 size=   11776kB time=00:01:04.76 bitrate=1489.5kbits/s speed=0.366x    frame= 1634 fps=9.2 q=31.0 size=   12032kB time=00:01:05.17 bitrate=1512.4kbits/s speed=0.367x    frame= 1639 fps=9.2 q=31.0 size=   12032kB time=00:01:05.17 bitrate=1512.4kbits/s speed=0.366x    frame= 1645 fps=9.2 q=31.0 size=   12032kB time=00:01:05.57 bitrate=1503.0kbits/s speed=0.367x    frame= 1651 fps=9.2 q=31.0 size=   12032kB time=00:01:05.96 bitrate=1494.3kbits/s speed=0.368x    frame= 1657 fps=9.2 q=31.0 size=   12032kB time=00:01:05.96 bitrate=1494.3kbits/s speed=0.367x    frame= 1663 fps=9.2 q=31.0 size=   12032kB time=00:01:06.36 bitrate=1485.2kbits/s speed=0.368x    frame= 1669 fps=9.2 q=31.0 size=   12032kB time=00:01:06.36 bitrate=1485.2kbits/s speed=0.367x    frame= 1675 fps=9.2 q=31.0 size=   12288kB time=00:01:06.77 bitrate=1507.5kbits/s speed=0.368x    frame= 1681 fps=9.2 q=31.0 size=   12288kB time=00:01:07.17 bitrate=1498.4kbits/s speed=0.369x    frame= 1687 fps=9.2 q=31.0 size=   12288kB time=00:01:07.17 bitrate=1498.4kbits/s speed=0.368x    frame= 1693 fps=9.2 q=31.0 size=   12288kB time=00:01:07.56 bitrate=1489.9kbits/s speed=0.369x    frame= 1698 fps=9.2 q=31.0 size=   12288kB time=00:01:07.56 bitrate=1489.9kbits/s speed=0.368x    frame= 1702 fps=9.2 q=31.0 size=   12288kB time=00:01:07.96 bitrate=1481.0kbits/s speed=0.369x    frame= 1706 fps=9.2 q=31.0 size=   12544kB time=00:01:07.96 bitrate=1511.9kbits/s speed=0.368x    frame= 1709 fps=9.2 q=31.0 size=   12544kB time=00:01:08.01 bitrate=1511.0kbits/s speed=0.367x    frame= 1714 fps=9.2 q=31.0 size=   12544kB time=00:01:08.37 bitrate=1502.9kbits/s speed=0.368x    frame= 1719 fps=9.2 q=31.0 size=   12544kB time=00:01:08.37 bitrate=1502.9kbits/s speed=0.367x    frame= 1723 fps=9.2 q=31.0 size=   12544kB time=00:01:08.77 bitrate=1494.1kbits/s speed=0.368x    frame= 1727 fps=9.2 q=31.0 size=   12800kB time=00:01:08.77 bitrate=1524.6kbits/s speed=0.367x    frame= 1732 fps=9.2 q=31.0 size=   12800kB time=00:01:09.16 bitrate=1516.1kbits/s speed=0.368x    frame= 1736 fps=9.2 q=31.0 size=   12800kB time=00:01:09.16 bitrate=1516.1kbits/s speed=0.367x    frame= 1739 fps=9.2 q=31.0 size=   12800kB time=00:01:09.20 bitrate=1515.2kbits/s speed=0.366x    frame= 1745 fps=9.2 q=31.0 size=   12800kB time=00:01:09.56 bitrate=1507.3kbits/s speed=0.367x    frame= 1749 fps=9.2 q=31.0 size=   13056kB time=00:01:09.58 bitrate=1536.9kbits/s speed=0.366x    frame= 1754 fps=9.2 q=31.0 size=   13056kB time=00:01:09.97 bitrate=1528.5kbits/s speed=0.367x    frame= 1758 fps=9.2 q=31.0 size=   13056kB time=00:01:09.97 bitrate=1528.5kbits/s speed=0.366x    frame= 1763 fps=9.2 q=31.0 size=   13056kB time=00:01:10.37 bitrate=1519.7kbits/s speed=0.367x    frame= 1768 fps=9.2 q=31.0 size=   13056kB time=00:01:10.37 bitrate=1519.7kbits/s speed=0.366x    frame= 1772 fps=9.2 q=31.0 size=   13312kB time=00:01:10.76 bitrate=1541.1kbits/s speed=0.367x    frame= 1779 fps=9.2 q=31.0 size=   13312kB time=00:01:10.76 bitrate=1541.1kbits/s speed=0.365x    frame= 1785 fps=9.2 q=31.0 size=   13312kB time=00:01:11.16 bitrate=1532.3kbits/s speed=0.367x    frame= 1791 fps=9.2 q=31.0 size=   13312kB time=00:01:11.57 bitrate=1523.6kbits/s speed=0.367x    frame= 1797 fps=9.2 q=31.0 size=   13312kB time=00:01:11.57 bitrate=1523.6kbits/s speed=0.367x    frame= 1804 fps=9.2 q=31.0 size=   13312kB time=00:01:11.97 bitrate=1515.1kbits/s speed=0.368x    frame= 1809 fps=9.2 q=31.0 size=   13312kB time=00:01:12.00 bitrate=1514.6kbits/s speed=0.367x    frame= 1817 fps=9.2 q=31.0 size=   13568kB time=00:01:12.36 bitrate=1536.0kbits/s speed=0.367x    frame= 1825 fps=9.2 q=31.0 size=   13568kB time=00:01:12.76 bitrate=1527.4kbits/s speed=0.368x    frame= 1832 fps=9.2 q=31.0 size=   13568kB time=00:01:13.17 bitrate=1519.0kbits/s speed=0.369x    frame= 1838 fps=9.2 q=31.0 size=   13568kB time=00:01:13.17 bitrate=1519.0kbits/s speed=0.368x    frame= 1845 fps=9.3 q=31.0 size=   13568kB time=00:01:13.57 bitrate=1510.6kbits/s speed=0.369x    frame= 1852 fps=9.3 q=31.0 size=   13568kB time=00:01:13.96 bitrate=1502.8kbits/s speed=0.37x    frame= 1858 fps=9.3 q=31.0 size=   13568kB time=00:01:13.96 bitrate=1502.8kbits/s speed=0.369x    frame= 1865 fps=9.3 q=31.0 size=   13568kB time=00:01:14.36 bitrate=1494.6kbits/s speed=0.37x    frame= 1872 fps=9.3 q=31.0 size=   13568kB time=00:01:14.77 bitrate=1486.5kbits/s speed=0.371x    frame= 1878 fps=9.3 q=31.0 size=   13568kB time=00:01:14.77 bitrate=1486.5kbits/s speed=0.37x    frame= 1885 fps=9.3 q=31.0 size=   13824kB time=00:01:15.17 bitrate=1506.4kbits/s speed=0.371x    frame= 1891 fps=9.3 q=31.0 size=   13824kB time=00:01:15.56 bitrate=1498.7kbits/s speed=0.372x    frame= 1897 fps=9.3 q=31.0 size=   13824kB time=00:01:15.56 bitrate=1498.7kbits/s speed=0.371x    frame= 1904 fps=9.3 q=31.0 size=   13824kB time=00:01:15.96 bitrate=1490.7kbits/s speed=0.372x    frame= 1909 fps=9.3 q=31.0 size=   13824kB time=00:01:15.98 bitrate=1490.3kbits/s speed=0.371x    frame= 1916 fps=9.3 q=31.0 size=   13824kB time=00:01:16.37 bitrate=1482.8kbits/s speed=0.372x    frame= 1921 fps=9.3 q=31.0 size=   13824kB time=00:01:16.75 bitrate=1475.4kbits/s speed=0.373x    frame= 1927 fps=9.3 q=31.0 size=   13824kB time=00:01:16.75 bitrate=1475.4kbits/s speed=0.372x    frame= 1932 fps=9.3 q=31.0 size=   14080kB time=00:01:17.16 bitrate=1494.8kbits/s speed=0.373x    frame= 1937 fps=9.3 q=31.0 size=   14080kB time=00:01:17.16 bitrate=1494.8kbits/s speed=0.372x    frame= 1941 fps=9.3 q=31.0 size=   14080kB time=00:01:17.56 bitrate=1487.0kbits/s speed=0.373x    frame= 1946 fps=9.3 q=31.0 size=   14080kB time=00:01:17.56 bitrate=1487.0kbits/s speed=0.372x    frame= 1951 fps=9.3 q=31.0 size=   14080kB time=00:01:17.97 bitrate=1479.3kbits/s speed=0.373x    frame= 1956 fps=9.3 q=31.0 size=   14080kB time=00:01:17.97 bitrate=1479.3kbits/s speed=0.371x    frame= 1961 fps=9.3 q=31.0 size=   14336kB time=00:01:18.35 bitrate=1498.8kbits/s speed=0.372x    frame= 1966 fps=9.3 q=31.0 size=   14336kB time=00:01:18.35 bitrate=1498.8kbits/s speed=0.371x    frame= 1969 fps=9.3 q=31.0 size=   14336kB time=00:01:18.37 bitrate=1498.4kbits/s speed=0.371x    frame= 1974 fps=9.3 q=31.0 size=   14336kB time=00:01:18.76 bitrate=1491.1kbits/s speed=0.371x    frame= 1979 fps=9.3 q=31.0 size=   14336kB time=00:01:18.76 bitrate=1491.1kbits/s speed=0.371x    frame= 1984 fps=9.3 q=31.0 size=   14336kB time=00:01:19.16 bitrate=1483.4kbits/s speed=0.371x    frame= 1989 fps=9.3 q=31.0 size=   14592kB time=00:01:19.16 bitrate=1509.9kbits/s speed=0.37x    frame= 1994 fps=9.3 q=31.0 size=   14592kB time=00:01:19.57 bitrate=1502.2kbits/s speed=0.371x    frame= 1999 fps=9.3 q=31.0 size=   14592kB time=00:01:19.57 bitrate=1502.2kbits/s speed=0.37x    frame= 2004 fps=9.3 q=31.0 size=   14592kB time=00:01:19.95 bitrate=1495.0kbits/s speed=0.371x    frame= 2009 fps=9.3 q=31.0 size=   14592kB time=00:01:19.95 bitrate=1495.0kbits/s speed=0.37x    frame= 2014 fps=9.3 q=31.0 size=   14592kB time=00:01:20.36 bitrate=1487.5kbits/s speed=0.371x    frame= 2019 fps=9.3 q=28.0 size=   14848kB time=00:01:20.36 bitrate=1513.6kbits/s speed=0.37x    frame= 2022 fps=9.3 q=31.0 size=   14848kB time=00:01:20.76 bitrate=1506.0kbits/s speed=0.371x    frame= 2027 fps=9.3 q=31.0 size=   14848kB time=00:01:20.76 bitrate=1506.0kbits/s speed=0.37x    frame= 2031 fps=9.3 q=31.0 size=   14848kB time=00:01:21.17 bitrate=1498.5kbits/s speed=0.371x    frame= 2035 fps=9.3 q=31.0 size=   14848kB time=00:01:21.17 bitrate=1498.5kbits/s speed=0.37x    frame= 2039 fps=9.3 q=31.0 size=   14848kB time=00:01:21.17 bitrate=1498.5kbits/s speed=0.369x    frame= 2044 fps=9.3 q=31.0 size=   15104kB time=00:01:21.55 bitrate=1517.1kbits/s speed=0.37x    frame= 2049 fps=9.3 q=31.0 size=   15104kB time=00:01:21.55 bitrate=1517.1kbits/s speed=0.369x    frame= 2053 fps=9.3 q=31.0 size=   15104kB time=00:01:21.96 bitrate=1509.6kbits/s speed=0.37x    frame= 2057 fps=9.3 q=31.0 size=   15104kB time=00:01:21.96 bitrate=1509.6kbits/s speed=0.369x    frame= 2061 fps=9.3 q=31.0 size=   15104kB time=00:01:22.36 bitrate=1502.2kbits/s speed=0.37x    frame= 2065 fps=9.3 q=31.0 size=   15360kB time=00:01:22.36 bitrate=1527.7kbits/s speed=0.369x    frame= 2069 fps=9.2 q=31.0 size=   15360kB time=00:01:22.36 bitrate=1527.7kbits/s speed=0.368x    frame= 2074 fps=9.2 q=31.0 size=   15360kB time=00:01:22.77 bitrate=1520.2kbits/s speed=0.369x    frame= 2078 fps=9.2 q=31.0 size=   15360kB time=00:01:22.77 bitrate=1520.2kbits/s speed=0.368x    frame= 2083 fps=9.2 q=31.0 size=   15360kB time=00:01:23.15 bitrate=1513.1kbits/s speed=0.369x    frame= 2088 fps=9.2 q=31.0 size=   15360kB time=00:01:23.15 bitrate=1513.1kbits/s speed=0.368x    frame= 2093 fps=9.2 q=31.0 size=   15360kB time=00:01:23.56 bitrate=1505.8kbits/s speed=0.369x    frame= 2098 fps=9.2 q=31.0 size=   15616kB time=00:01:23.56 bitrate=1530.9kbits/s speed=0.368x    frame= 2103 fps=9.2 q=31.0 size=   15616kB time=00:01:23.96 bitrate=1523.5kbits/s speed=0.369x    frame= 2108 fps=9.2 q=31.0 size=   15616kB time=00:01:23.96 bitrate=1523.5kbits/s speed=0.368x    frame= 2113 fps=9.2 q=31.0 size=   15616kB time=00:01:24.37 bitrate=1516.2kbits/s speed=0.368x    frame= 2118 fps=9.2 q=31.0 size=   15616kB time=00:01:24.37 bitrate=1516.2kbits/s speed=0.368x    frame= 2123 fps=9.2 q=31.0 size=   15616kB time=00:01:24.77 bitrate=1508.9kbits/s speed=0.368x    frame= 2128 fps=9.2 q=31.0 size=   15616kB time=00:01:24.77 bitrate=1508.9kbits/s speed=0.368x    frame= 2133 fps=9.2 q=31.0 size=   15616kB time=00:01:25.16 bitrate=1502.1kbits/s speed=0.368x    frame= 2138 fps=9.2 q=31.0 size=   15872kB time=00:01:25.16 bitrate=1526.8kbits/s speed=0.367x    frame= 2143 fps=9.2 q=31.0 size=   15872kB time=00:01:25.56 bitrate=1519.5kbits/s speed=0.368x    frame= 2149 fps=9.2 q=31.0 size=   15872kB time=00:01:25.56 bitrate=1519.5kbits/s speed=0.367x    frame= 2154 fps=9.2 q=31.0 size=   15872kB time=00:01:25.97 bitrate=1512.4kbits/s speed=0.368x    frame= 2159 fps=9.2 q=31.0 size=   15872kB time=00:01:25.99 bitrate=1512.0kbits/s speed=0.367x    frame= 2165 fps=9.2 q=31.0 size=   15872kB time=00:01:26.37 bitrate=1505.3kbits/s speed=0.368x    frame= 2169 fps=9.2 q=31.0 size=   15872kB time=00:01:26.72 bitrate=1499.4kbits/s speed=0.369x    frame= 2175 fps=9.2 q=31.0 size=   15872kB time=00:01:26.76 bitrate=1498.6kbits/s speed=0.368x    frame= 2179 fps=9.2 q=31.0 size=   16128kB time=00:01:26.78 bitrate=1522.4kbits/s speed=0.367x    frame= 2185 fps=9.2 q=28.0 size=   16128kB time=00:01:27.16 bitrate=1515.7kbits/s speed=0.368x    frame= 2189 fps=9.2 q=31.0 size=   16128kB time=00:01:27.16 bitrate=1515.7kbits/s speed=0.367x    frame= 2195 fps=9.2 q=31.0 size=   16128kB time=00:01:27.57 bitrate=1508.7kbits/s speed=0.368x    frame= 2199 fps=9.2 q=31.0 size=   16128kB time=00:01:27.59 bitrate=1508.3kbits/s speed=0.367x    frame= 2205 fps=9.2 q=31.0 size=   16128kB time=00:01:27.97 bitrate=1501.7kbits/s speed=0.368x    frame= 2209 fps=9.2 q=31.0 size=   16128kB time=00:01:28.21 bitrate=1497.7kbits/s speed=0.368x    frame= 2215 fps=9.2 q=31.0 size=   16128kB time=00:01:28.36 bitrate=1495.2kbits/s speed=0.368x    frame= 2219 fps=9.2 q=31.0 size=   16384kB time=00:01:28.38 bitrate=1518.6kbits/s speed=0.367x    frame= 2225 fps=9.2 q=31.0 size=   16384kB time=00:01:28.76 bitrate=1512.0kbits/s speed=0.368x    frame= 2229 fps=9.2 q=31.0 size=   16384kB time=00:01:28.76 bitrate=1512.0kbits/s speed=0.367x    frame= 2234 fps=9.2 q=31.0 size=   16384kB time=00:01:29.17 bitrate=1505.1kbits/s speed=0.368x    frame= 2239 fps=9.2 q=31.0 size=   16384kB time=00:01:29.17 bitrate=1505.1kbits/s speed=0.367x    frame= 2244 fps=9.2 q=31.0 size=   16384kB time=00:01:29.57 bitrate=1498.3kbits/s speed=0.368x    frame= 2249 fps=9.2 q=31.0 size=   16384kB time=00:01:29.57 bitrate=1498.3kbits/s speed=0.367x    frame= 2254 fps=9.2 q=31.0 size=   16384kB time=00:01:29.96 bitrate=1491.9kbits/s speed=0.368x    frame= 2259 fps=9.2 q=31.0 size=   16384kB time=00:01:29.96 bitrate=1491.9kbits/s speed=0.367x    frame= 2264 fps=9.2 q=31.0 size=   16640kB time=00:01:30.36 bitrate=1508.4kbits/s speed=0.368x    frame= 2269 fps=9.2 q=31.0 size=   16640kB time=00:01:30.38 bitrate=1508.1kbits/s speed=0.367x    frame= 2275 fps=9.2 q=31.0 size=   16640kB time=00:01:30.77 bitrate=1501.7kbits/s speed=0.368x    frame= 2279 fps=9.2 q=31.0 size=   16640kB time=00:01:31.05 bitrate=1497.1kbits/s speed=0.368x    frame= 2286 fps=9.2 q=31.0 size=   16640kB time=00:01:31.17 bitrate=1495.0kbits/s speed=0.368x    frame= 2289 fps=9.2 q=31.0 size=   16640kB time=00:01:31.49 bitrate=1489.8kbits/s speed=0.368x    frame= 2295 fps=9.2 q=31.0 size=   16640kB time=00:01:31.56 bitrate=1488.8kbits/s speed=0.367x    frame= 2299 fps=9.2 q=31.0 size=   16640kB time=00:01:31.58 bitrate=1488.4kbits/s speed=0.367x    frame= 2304 fps=9.2 q=31.0 size=   16896kB time=00:01:31.96 bitrate=1505.0kbits/s speed=0.367x    frame= 2311 fps=9.2 q=31.0 size=   16896kB time=00:01:32.37 bitrate=1498.4kbits/s speed=0.368x    frame= 2316 fps=9.2 q=31.0 size=   16896kB time=00:01:32.37 bitrate=1498.4kbits/s speed=0.367x    frame= 2322 fps=9.2 q=31.0 size=   16896kB time=00:01:32.77 bitrate=1491.9kbits/s speed=0.368x    frame= 2328 fps=9.2 q=31.0 size=   17152kB time=00:01:32.77 bitrate=1514.5kbits/s speed=0.367x    frame= 2335 fps=9.2 q=31.0 size=   17152kB time=00:01:33.16 bitrate=1508.2kbits/s speed=0.368x    frame= 2339 fps=9.2 q=31.0 size=   17152kB time=00:01:33.18 bitrate=1507.9kbits/s speed=0.368x    frame= 2346 fps=9.2 q=31.0 size=   17152kB time=00:01:33.56 bitrate=1501.7kbits/s speed=0.368x    frame= 2352 fps=9.2 q=31.0 size=   17152kB time=00:01:33.97 bitrate=1495.2kbits/s speed=0.369x    frame= 2359 fps=9.2 q=31.0 size=   17152kB time=00:01:33.97 bitrate=1495.2kbits/s speed=0.368x    frame= 2365 fps=9.3 q=31.0 size=   17152kB time=00:01:34.37 bitrate=1488.8kbits/s speed=0.369x    frame= 2372 fps=9.3 q=31.0 size=   17408kB time=00:01:34.76 bitrate=1504.9kbits/s speed=0.37x    frame= 2379 fps=9.3 q=31.0 size=   17408kB time=00:01:34.76 bitrate=1504.9kbits/s speed=0.369x    frame= 2384 fps=9.3 q=31.0 size=   17408kB time=00:01:35.16 bitrate=1498.5kbits/s speed=0.37x    frame= 2389 fps=9.3 q=31.0 size=   17408kB time=00:01:35.18 bitrate=1498.1kbits/s speed=0.369x    frame= 2396 fps=9.3 q=31.0 size=   17408kB time=00:01:35.57 bitrate=1492.1kbits/s speed=0.37x    frame= 2403 fps=9.3 q=31.0 size=   17408kB time=00:01:35.97 bitrate=1485.8kbits/s speed=0.37x    frame= 2409 fps=9.3 q=31.0 size=   17408kB time=00:01:35.97 bitrate=1485.8kbits/s speed=0.37x    frame= 2415 fps=9.3 q=31.0 size=   17664kB time=00:01:36.36 bitrate=1501.7kbits/s speed=0.37x    frame= 2421 fps=9.3 q=31.0 size=   17664kB time=00:01:36.76 bitrate=1495.4kbits/s speed=0.371x    frame= 2427 fps=9.3 q=31.0 size=   17664kB time=00:01:36.76 bitrate=1495.4kbits/s speed=0.37x    frame= 2433 fps=9.3 q=31.0 size=   17664kB time=00:01:37.17 bitrate=1489.1kbits/s speed=0.371x    frame= 2437 fps=9.3 q=31.0 size=   17664kB time=00:01:37.17 bitrate=1489.1kbits/s speed=0.37x    frame= 2443 fps=9.3 q=28.0 size=   17920kB time=00:01:37.57 bitrate=1504.4kbits/s speed=0.371x    frame= 2449 fps=9.3 q=31.0 size=   17920kB time=00:01:37.57 bitrate=1504.4kbits/s speed=0.37x    frame= 2454 fps=9.3 q=31.0 size=   17920kB time=00:01:37.96 bitrate=1498.5kbits/s speed=0.371x    frame= 2459 fps=9.3 q=31.0 size=   17920kB time=00:01:37.96 bitrate=1498.5kbits/s speed=0.37x    frame= 2464 fps=9.3 q=31.0 size=   17920kB time=00:01:38.36 bitrate=1492.4kbits/s speed=0.371x    frame= 2469 fps=9.3 q=31.0 size=   17920kB time=00:01:38.36 bitrate=1492.4kbits/s speed=0.37x    frame= 2474 fps=9.3 q=31.0 size=   17920kB time=00:01:38.77 bitrate=1486.2kbits/s speed=0.371x    frame= 2479 fps=9.3 q=31.0 size=   18176kB time=00:01:38.77 bitrate=1507.5kbits/s speed=0.37x    frame= 2484 fps=9.3 q=31.0 size=   18176kB time=00:01:39.17 bitrate=1501.3kbits/s speed=0.371x    frame= 2489 fps=9.3 q=31.0 size=   18176kB time=00:01:39.17 bitrate=1501.3kbits/s speed=0.37x    frame= 2494 fps=9.3 q=31.0 size=   18176kB time=00:01:39.56 bitrate=1495.5kbits/s speed=0.371x    frame= 2499 fps=9.3 q=31.0 size=   18176kB time=00:01:39.56 bitrate=1495.5kbits/s speed=0.37x    frame= 2504 fps=9.3 q=31.0 size=   18176kB time=00:01:39.96 bitrate=1489.5kbits/s speed=0.371x    frame= 2509 fps=9.3 q=31.0 size=   18176kB time=00:01:39.96 bitrate=1489.5kbits/s speed=0.37x    frame= 2514 fps=9.3 q=31.0 size=   18432kB time=00:01:40.37 bitrate=1504.3kbits/s speed=0.371x    frame= 2519 fps=9.3 q=31.0 size=   18432kB time=00:01:40.37 bitrate=1504.3kbits/s speed=0.37x    frame= 2524 fps=9.3 q=31.0 size=   18432kB time=00:01:40.75 bitrate=1498.6kbits/s speed=0.371x    frame= 2529 fps=9.3 q=31.0 size=   18432kB time=00:01:40.75 bitrate=1498.6kbits/s speed=0.37x    frame= 2534 fps=9.3 q=31.0 size=   18432kB time=00:01:41.16 bitrate=1492.6kbits/s speed=0.371x    frame= 2539 fps=9.3 q=31.0 size=   18432kB time=00:01:41.18 bitrate=1492.3kbits/s speed=0.37x    frame= 2545 fps=9.3 q=31.0 size=   18432kB time=00:01:41.56 bitrate=1486.6kbits/s speed=0.371x    frame= 2549 fps=9.3 q=31.0 size=   18688kB time=00:01:41.58 bitrate=1507.0kbits/s speed=0.37x    frame= 2555 fps=9.3 q=31.0 size=   18688kB time=00:01:41.97 bitrate=1501.3kbits/s speed=0.371x    frame= 2561 fps=9.3 q=31.0 size=   18688kB time=00:01:42.35 bitrate=1495.7kbits/s speed=0.371x    frame= 2566 fps=9.3 q=31.0 size=   18688kB time=00:01:42.35 bitrate=1495.7kbits/s speed=0.37x    frame= 2571 fps=9.3 q=31.0 size=   18944kB time=00:01:42.76 bitrate=1510.2kbits/s speed=0.371x    frame= 2576 fps=9.3 q=31.0 size=   18944kB time=00:01:42.76 bitrate=1510.2kbits/s speed=0.37x    frame= 2582 fps=9.3 q=31.0 size=   18944kB time=00:01:43.16 bitrate=1504.2kbits/s speed=0.371x    frame= 2588 fps=9.3 q=31.0 size=   18944kB time=00:01:43.16 bitrate=1504.2kbits/s speed=0.37x    frame= 2594 fps=9.3 q=31.0 size=   18944kB time=00:01:43.57 bitrate=1498.4kbits/s speed=0.371x    frame= 2599 fps=9.3 q=31.0 size=   18944kB time=00:01:43.59 bitrate=1498.0kbits/s speed=0.37x    frame= 2606 fps=9.3 q=31.0 size=   19200kB time=00:01:43.95 bitrate=1513.0kbits/s speed=0.371x    frame= 2613 fps=9.3 q=31.0 size=   19200kB time=00:01:44.36 bitrate=1507.1kbits/s speed=0.372x    frame= 2619 fps=9.3 q=31.0 size=   19200kB time=00:01:44.36 bitrate=1507.1kbits/s speed=0.371x    frame= 2625 fps=9.3 q=31.0 size=   19200kB time=00:01:44.76 bitrate=1501.3kbits/s speed=0.371x    frame= 2631 fps=9.3 q=31.0 size=   19200kB time=00:01:45.17 bitrate=1495.5kbits/s speed=0.372x    frame= 2637 fps=9.3 q=31.0 size=   19200kB time=00:01:45.17 bitrate=1495.5kbits/s speed=0.371x    frame= 2643 fps=9.3 q=31.0 size=   19456kB time=00:01:45.55 bitrate=1509.9kbits/s speed=0.372x    frame= 2649 fps=9.3 q=31.0 size=   19456kB time=00:01:45.55 bitrate=1509.9kbits/s speed=0.371x    frame= 2655 fps=9.3 q=31.0 size=   19456kB time=00:01:45.96 bitrate=1504.2kbits/s speed=0.372x    frame= 2661 fps=9.3 q=31.0 size=   19456kB time=00:01:46.36 bitrate=1498.4kbits/s speed=0.373x    frame= 2666 fps=9.3 q=31.0 size=   19456kB time=00:01:46.36 bitrate=1498.4kbits/s speed=0.372x    frame= 2671 fps=9.3 q=31.0 size=   19456kB time=00:01:46.77 bitrate=1492.7kbits/s speed=0.372x    frame= 2676 fps=9.3 q=31.0 size=   19456kB time=00:01:46.77 bitrate=1492.7kbits/s speed=0.372x    frame= 2681 fps=9.3 q=31.0 size=   19712kB time=00:01:47.15 bitrate=1507.0kbits/s speed=0.372x    frame= 2686 fps=9.3 q=31.0 size=   19712kB time=00:01:47.15 bitrate=1507.0kbits/s speed=0.372x    frame= 2691 fps=9.3 q=31.0 size=   19712kB time=00:01:47.56 bitrate=1501.3kbits/s speed=0.372x    frame= 2696 fps=9.3 q=31.0 size=   19712kB time=00:01:47.56 bitrate=1501.3kbits/s speed=0.372x    frame= 2701 fps=9.3 q=31.0 size=   19712kB time=00:01:47.96 bitrate=1495.6kbits/s speed=0.372x    frame= 2706 fps=9.3 q=31.0 size=   19712kB time=00:01:47.96 bitrate=1495.6kbits/s speed=0.372x    frame= 2712 fps=9.3 q=31.0 size=   19712kB time=00:01:48.37 bitrate=1490.0kbits/s speed=0.372x    frame= 2717 fps=9.3 q=31.0 size=   19712kB time=00:01:48.37 bitrate=1490.0kbits/s speed=0.372x    frame= 2722 fps=9.3 q=31.0 size=   19968kB time=00:01:48.77 bitrate=1503.8kbits/s speed=0.372x    frame= 2727 fps=9.3 q=31.0 size=   19968kB time=00:01:48.77 bitrate=1503.8kbits/s speed=0.372x    frame= 2732 fps=9.3 q=31.0 size=   19968kB time=00:01:49.16 bitrate=1498.5kbits/s speed=0.372x    frame= 2737 fps=9.3 q=31.0 size=   19968kB time=00:01:49.16 bitrate=1498.5kbits/s speed=0.372x    frame= 2742 fps=9.3 q=31.0 size=   19968kB time=00:01:49.56 bitrate=1492.9kbits/s speed=0.372x    frame= 2747 fps=9.3 q=31.0 size=   19968kB time=00:01:49.56 bitrate=1492.9kbits/s speed=0.372x    frame= 2752 fps=9.3 q=31.0 size=   19968kB time=00:01:49.97 bitrate=1487.4kbits/s speed=0.372x    frame= 2757 fps=9.3 q=31.0 size=   19968kB time=00:01:49.97 bitrate=1487.4kbits/s speed=0.371x    frame= 2762 fps=9.3 q=31.0 size=   19968kB time=00:01:50.37 bitrate=1482.0kbits/s speed=0.372x    frame= 2768 fps=9.3 q=31.0 size=   20224kB time=00:01:50.37 bitrate=1501.0kbits/s speed=0.371x    frame= 2773 fps=9.3 q=31.0 size=   20224kB time=00:01:50.76 bitrate=1495.8kbits/s speed=0.372x    frame= 2778 fps=9.3 q=31.0 size=   20224kB time=00:01:50.76 bitrate=1495.8kbits/s speed=0.371x    frame= 2784 fps=9.3 q=31.0 size=   20224kB time=00:01:51.16 bitrate=1490.3kbits/s speed=0.372x    frame= 2788 fps=9.3 q=31.0 size=   20224kB time=00:01:51.16 bitrate=1490.3kbits/s speed=0.371x    frame= 2794 fps=9.3 q=31.0 size=   20224kB time=00:01:51.57 bitrate=1484.9kbits/s speed=0.372x    frame= 2799 fps=9.3 q=31.0 size=   20224kB time=00:01:51.59 bitrate=1484.6kbits/s speed=0.371x    frame= 2805 fps=9.3 q=31.0 size=   20224kB time=00:01:51.97 bitrate=1479.5kbits/s speed=0.372x    frame= 2811 fps=9.3 q=31.0 size=   20224kB time=00:01:52.36 bitrate=1474.5kbits/s speed=0.372x    frame= 2816 fps=9.3 q=31.0 size=   20480kB time=00:01:52.36 bitrate=1493.1kbits/s speed=0.372x    frame= 2821 fps=9.3 q=31.0 size=   20480kB time=00:01:52.76 bitrate=1487.8kbits/s speed=0.373x    frame= 2827 fps=9.3 q=31.0 size=   20480kB time=00:01:52.76 bitrate=1487.8kbits/s speed=0.372x    frame= 2832 fps=9.3 q=31.0 size=   20480kB time=00:01:53.17 bitrate=1482.4kbits/s speed=0.373x    frame= 2838 fps=9.3 q=31.0 size=   20480kB time=00:01:53.17 bitrate=1482.4kbits/s speed=0.372x    frame= 2843 fps=9.3 q=31.0 size=   20480kB time=00:01:53.57 bitrate=1477.1kbits/s speed=0.373x    frame= 2848 fps=9.3 q=28.0 size=   20480kB time=00:01:53.57 bitrate=1477.1kbits/s speed=0.372x    frame= 2852 fps=9.3 q=31.0 size=   20480kB time=00:01:53.96 bitrate=1472.2kbits/s speed=0.373x    frame= 2858 fps=9.3 q=31.0 size=   20480kB time=00:01:53.96 bitrate=1472.2kbits/s speed=0.372x    frame= 2864 fps=9.3 q=31.0 size=   20736kB time=00:01:54.36 bitrate=1485.3kbits/s speed=0.373x    frame= 2869 fps=9.3 q=31.0 size=   20736kB time=00:01:54.36 bitrate=1485.3kbits/s speed=0.372x    frame= 2875 fps=9.3 q=31.0 size=   20736kB time=00:01:54.77 bitrate=1480.0kbits/s speed=0.373x    frame= 2882 fps=9.3 q=31.0 size=   20736kB time=00:01:55.17 bitrate=1474.8kbits/s speed=0.373x    frame= 2888 fps=9.3 q=31.0 size=   20736kB time=00:01:55.17 bitrate=1474.8kbits/s speed=0.373x    frame= 2894 fps=9.3 q=31.0 size=   20736kB time=00:01:55.56 bitrate=1469.9kbits/s speed=0.373x    frame= 2901 fps=9.4 q=31.0 size=   20736kB time=00:01:55.96 bitrate=1464.8kbits/s speed=0.374x    frame= 2907 fps=9.4 q=31.0 size=   20736kB time=00:01:55.96 bitrate=1464.8kbits/s speed=0.373x    frame= 2914 fps=9.4 q=31.0 size=   20736kB time=00:01:56.37 bitrate=1459.7kbits/s speed=0.374x    frame= 2921 fps=9.4 q=31.0 size=   20992kB time=00:01:56.77 bitrate=1472.6kbits/s speed=0.374x    frame= 2927 fps=9.4 q=31.0 size=   20992kB time=00:01:56.77 bitrate=1472.6kbits/s speed=0.374x    frame= 2934 fps=9.4 q=31.0 size=   20992kB time=00:01:57.16 bitrate=1467.8kbits/s speed=0.374x    frame= 2939 fps=9.4 q=31.0 size=   20992kB time=00:01:57.18 bitrate=1467.5kbits/s speed=0.374x    frame= 2946 fps=9.4 q=31.0 size=   20992kB time=00:01:57.56 bitrate=1462.7kbits/s speed=0.374x    frame= 2952 fps=9.4 q=31.0 size=   20992kB time=00:01:57.97 bitrate=1457.7kbits/s speed=0.375x    frame= 2958 fps=9.4 q=31.0 size=   20992kB time=00:01:57.97 bitrate=1457.7kbits/s speed=0.374x    frame= 2964 fps=9.4 q=31.0 size=   20992kB time=00:01:58.37 bitrate=1452.7kbits/s speed=0.375x    frame= 2969 fps=9.4 q=28.0 size=   21248kB time=00:01:58.40 bitrate=1470.1kbits/s speed=0.374x    frame= 2975 fps=9.4 q=31.0 size=   21248kB time=00:01:58.76 bitrate=1465.6kbits/s speed=0.375x    frame= 2979 fps=9.4 q=31.0 size=   21248kB time=00:01:58.78 bitrate=1465.4kbits/s speed=0.374x    frame= 2986 fps=9.4 q=31.0 size=   21248kB time=00:01:59.16 bitrate=1460.7kbits/s speed=0.375x    frame= 2991 fps=9.4 q=31.0 size=   21248kB time=00:01:59.57 bitrate=1455.7kbits/s speed=0.375x    frame= 2997 fps=9.4 q=31.0 size=   21248kB time=00:01:59.57 bitrate=1455.7kbits/s speed=0.375x    frame= 3003 fps=9.4 q=31.0 size=   21248kB time=00:01:59.97 bitrate=1450.8kbits/s speed=0.375x    frame= 3009 fps=9.4 q=31.0 size=   21248kB time=00:01:59.97 bitrate=1450.8kbits/s speed=0.374x    frame= 3014 fps=9.4 q=31.0 size=   21504kB time=00:02:00.36 bitrate=1463.6kbits/s speed=0.375x    frame= 3019 fps=9.4 q=31.0 size=   21504kB time=00:02:00.36 bitrate=1463.6kbits/s speed=0.374x    frame= 3025 fps=9.4 q=31.0 size=   21504kB time=00:02:00.76 bitrate=1458.7kbits/s speed=0.375x    frame= 3029 fps=9.4 q=31.0 size=   21504kB time=00:02:00.83 bitrate=1457.9kbits/s speed=0.375x    frame= 3035 fps=9.4 q=31.0 size=   21504kB time=00:02:01.17 bitrate=1453.8kbits/s speed=0.375x    frame= 3041 fps=9.4 q=31.0 size=   21504kB time=00:02:01.57 bitrate=1448.9kbits/s speed=0.376x    frame= 3047 fps=9.4 q=31.0 size=   21504kB time=00:02:01.57 bitrate=1448.9kbits/s speed=0.375x    frame= 3052 fps=9.4 q=31.0 size=   21504kB time=00:02:01.96 bitrate=1444.4kbits/s speed=0.375x    frame= 3057 fps=9.4 q=31.0 size=   21504kB time=00:02:01.96 bitrate=1444.4kbits/s speed=0.375x    frame= 3063 fps=9.4 q=31.0 size=   21760kB time=00:02:02.36 bitrate=1456.7kbits/s speed=0.375x    frame= 3069 fps=9.4 q=31.0 size=   21760kB time=00:02:02.38 bitrate=1456.5kbits/s speed=0.375x    frame= 3075 fps=9.4 q=31.0 size=   21760kB time=00:02:02.77 bitrate=1451.9kbits/s speed=0.375x    frame= 3081 fps=9.4 q=31.0 size=   21760kB time=00:02:03.17 bitrate=1447.2kbits/s speed=0.376x    frame= 3087 fps=9.4 q=31.0 size=   21760kB time=00:02:03.17 bitrate=1447.2kbits/s speed=0.375x    frame= 3093 fps=9.4 q=31.0 size=   21760kB time=00:02:03.56 bitrate=1442.7kbits/s speed=0.376x    frame= 3099 fps=9.4 q=31.0 size=   21760kB time=00:02:03.56 bitrate=1442.7kbits/s speed=0.375x    frame= 3105 fps=9.4 q=31.0 size=   22016kB time=00:02:03.96 bitrate=1454.9kbits/s speed=0.376x    frame= 3111 fps=9.4 q=31.0 size=   22016kB time=00:02:04.37 bitrate=1450.1kbits/s speed=0.376x    frame= 3118 fps=9.4 q=31.0 size=   22016kB time=00:02:04.37 bitrate=1450.1kbits/s speed=0.376x    frame= 3123 fps=9.4 q=31.0 size=   22016kB time=00:02:04.75 bitrate=1445.7kbits/s speed=0.376x    frame= 3129 fps=9.4 q=31.0 size=   22016kB time=00:02:04.77 bitrate=1445.4kbits/s speed=0.376x    frame= 3136 fps=9.4 q=31.0 size=   22016kB time=00:02:05.16 bitrate=1441.0kbits/s speed=0.376x    frame= 3143 fps=9.4 q=31.0 size=   22016kB time=00:02:05.56 bitrate=1436.3kbits/s speed=0.377x    frame= 3149 fps=9.4 q=31.0 size=   22016kB time=00:02:05.58 bitrate=1436.1kbits/s speed=0.376x    frame= 3155 fps=9.4 q=31.0 size=   22016kB time=00:02:05.97 bitrate=1431.7kbits/s speed=0.377x    frame= 3163 fps=9.4 q=31.0 size=   22272kB time=00:02:06.35 bitrate=1443.9kbits/s speed=0.377x    frame= 3169 fps=9.4 q=31.0 size=   22272kB time=00:02:06.37 bitrate=1443.7kbits/s speed=0.377x    frame= 3173 fps=9.4 q=31.0 size=   22272kB time=00:02:06.76 bitrate=1439.3kbits/s speed=0.377x    frame= 3179 fps=9.4 q=31.0 size=   22272kB time=00:02:06.76 bitrate=1439.3kbits/s speed=0.377x    frame= 3185 fps=9.4 q=31.0 size=   22272kB time=00:02:07.16 bitrate=1434.7kbits/s speed=0.377x    frame= 3191 fps=9.5 q=31.0 size=   22272kB time=00:02:07.57 bitrate=1430.2kbits/s speed=0.378x    frame= 3197 fps=9.5 q=31.0 size=   22272kB time=00:02:07.57 bitrate=1430.2kbits/s speed=0.377x    frame= 3203 fps=9.5 q=31.0 size=   22272kB time=00:02:07.95 bitrate=1425.9kbits/s speed=0.378x    frame= 3209 fps=9.5 q=31.0 size=   22272kB time=00:02:07.95 bitrate=1425.9kbits/s speed=0.377x    frame= 3215 fps=9.5 q=31.0 size=   22528kB time=00:02:08.36 bitrate=1437.7kbits/s speed=0.378x    frame= 3221 fps=9.5 q=31.0 size=   22528kB time=00:02:08.76 bitrate=1433.2kbits/s speed=0.378x    frame= 3227 fps=9.5 q=31.0 size=   22528kB time=00:02:08.76 bitrate=1433.2kbits/s speed=0.378x    frame= 3229 fps=9.5 q=31.0 size=   22528kB time=00:02:08.78 bitrate=1433.0kbits/s speed=0.377x    frame= 3234 fps=9.5 q=31.0 size=   22528kB time=00:02:09.17 bitrate=1428.7kbits/s speed=0.378x    frame= 3238 fps=9.5 q=31.0 size=   22784kB time=00:02:09.17 bitrate=1444.9kbits/s speed=0.377x    frame= 3242 fps=9.5 q=31.0 size=   22784kB time=00:02:09.55 bitrate=1440.7kbits/s speed=0.378x    frame= 3246 fps=9.4 q=31.0 size=   22784kB time=00:02:09.55 bitrate=1440.7kbits/s speed=0.377x    frame= 3249 fps=9.4 q=31.0 size=   22784kB time=00:02:09.57 bitrate=1440.4kbits/s speed=0.377x    frame= 3254 fps=9.4 q=31.0 size=   22784kB time=00:02:09.96 bitrate=1436.2kbits/s speed=0.377x    frame= 3258 fps=9.4 q=31.0 size=   23040kB time=00:02:09.96 bitrate=1452.3kbits/s speed=0.376x    frame= 3262 fps=9.4 q=31.0 size=   23040kB time=00:02:10.36 bitrate=1447.8kbits/s speed=0.377x    frame= 3266 fps=9.4 q=31.0 size=   23040kB time=00:02:10.36 bitrate=1447.8kbits/s speed=0.377x    frame= 3269 fps=9.4 q=31.0 size=   23040kB time=00:02:10.38 bitrate=1447.5kbits/s speed=0.376x    frame= 3274 fps=9.4 q=31.0 size=   23040kB time=00:02:10.77 bitrate=1443.3kbits/s speed=0.377x    frame= 3278 fps=9.4 q=31.0 size=   23296kB time=00:02:10.77 bitrate=1459.3kbits/s speed=0.376x    frame= 3282 fps=9.4 q=31.0 size=   23296kB time=00:02:11.15 bitrate=1455.1kbits/s speed=0.376x    frame= 3286 fps=9.4 q=31.0 size=   23296kB time=00:02:11.15 bitrate=1455.1kbits/s speed=0.376x    frame= 3291 fps=9.4 q=31.0 size=   23296kB time=00:02:11.56 bitrate=1450.6kbits/s speed=0.376x    frame= 3296 fps=9.4 q=31.0 size=   23552kB time=00:02:11.56 bitrate=1466.5kbits/s speed=0.376x    frame= 3301 fps=9.4 q=31.0 size=   23552kB time=00:02:11.96 bitrate=1462.0kbits/s speed=0.376x    frame= 3306 fps=9.4 q=31.0 size=   23552kB time=00:02:11.96 bitrate=1462.0kbits/s speed=0.376x    frame= 3311 fps=9.4 q=31.0 size=   23552kB time=00:02:12.37 bitrate=1457.5kbits/s speed=0.376x    frame= 3316 fps=9.4 q=31.0 size=   23552kB time=00:02:12.37 bitrate=1457.5kbits/s speed=0.376x    frame= 3321 fps=9.4 q=31.0 size=   23552kB time=00:02:12.77 bitrate=1453.1kbits/s speed=0.376x    frame= 3326 fps=9.4 q=31.0 size=   23552kB time=00:02:12.77 bitrate=1453.1kbits/s speed=0.375x    frame= 3331 fps=9.4 q=31.0 size=   23808kB time=00:02:13.16 bitrate=1464.6kbits/s speed=0.376x    frame= 3336 fps=9.4 q=31.0 size=   23808kB time=00:02:13.16 bitrate=1464.6kbits/s speed=0.375x    frame= 3342 fps=9.4 q=31.0 size=   23808kB time=00:02:13.56 bitrate=1460.2kbits/s speed=0.376x    frame= 3347 fps=9.4 q=31.0 size=   23808kB time=00:02:13.56 bitrate=1460.2kbits/s speed=0.375x    frame= 3352 fps=9.4 q=31.0 size=   23808kB time=00:02:13.97 bitrate=1455.8kbits/s speed=0.376x    frame= 3358 fps=9.4 q=31.0 size=   23808kB time=00:02:13.97 bitrate=1455.8kbits/s speed=0.375x    frame= 3364 fps=9.4 q=31.0 size=   24064kB time=00:02:14.37 bitrate=1467.0kbits/s speed=0.376x    frame= 3368 fps=9.4 q=31.0 size=   24064kB time=00:02:14.37 bitrate=1467.0kbits/s speed=0.375x    frame= 3372 fps=9.4 q=31.0 size=   24064kB time=00:02:14.76 bitrate=1462.8kbits/s speed=0.376x    frame= 3377 fps=9.4 q=31.0 size=   24064kB time=00:02:14.76 bitrate=1462.8kbits/s speed=0.375x    frame= 3389 fps=9.4 q=31.0 size=   24064kB time=00:02:15.18 bitrate=1458.2kbits/s speed=0.376x    frame= 3404 fps=9.4 q=31.0 size=   24064kB time=00:02:15.97 bitrate=1449.7kbits/s speed=0.377x    frame= 3417 fps=9.5 q=31.0 size=   24064kB time=00:02:16.36 bitrate=1445.6kbits/s speed=0.378x    frame= 3429 fps=9.5 q=31.0 size=   24064kB time=00:02:16.76 bitrate=1441.4kbits/s speed=0.378x    frame= 3439 fps=9.5 q=31.0 size=   24064kB time=00:02:17.19 bitrate=1436.9kbits/s speed=0.379x    frame= 3449 fps=9.5 q=31.0 size=   24064kB time=00:02:17.40 bitrate=1434.7kbits/s speed=0.379x    frame= 3450 fps=9.5 q=31.0 Lsize=   24455kB time=00:02:18.00 bitrate=1451.6kbits/s speed=0.379x    
video:22196kB audio:2155kB subtitle:0kB other streams:0kB global headers:0kB muxing overhead: 0.426030%
[libx264 @ 0x564255e30fc0] frame I:37    Avg QP:19.61  size: 44564
[libx264 @ 0x564255e30fc0] frame P:925   Avg QP:23.50  size: 11154
[libx264 @ 0x564255e30fc0] frame B:2488  Avg QP:24.50  size:  4325
[libx264 @ 0x564255e30fc0] consecutive B-frames:  2.6%  2.9%  2.7% 91.8%
[libx264 @ 0x564255e30fc0] mb I  I16..4: 39.2% 54.2%  6.6%
[libx264 @ 0x564255e30fc0] mb P  I16..4:  4.5%  6.0%  0.2%  P16..4: 22.9%  3.5%  2.2%  0.0%  0.0%    skip:60.7%
[libx264 @ 0x564255e30fc0] mb B  I16..4:  2.8%  0.9%  0.0%  B16..8: 13.5%  1.3%  0.0%  direct: 6.9%  skip:74.6%  L0:44.9% L1:49.8% BI: 5.3%
[libx264 @ 0x564255e30fc0] 8x8 transform intra:42.9% inter:84.2%
[libx264 @ 0x564255e30fc0] coded y,uvDC,uvAC intra: 17.3% 33.7% 3.1% inter: 2.9% 8.0% 0.0%
[libx264 @ 0x564255e30fc0] i16 v,h,dc,p: 45% 24% 15% 16%
[libx264 @ 0x564255e30fc0] i8 v,h,dc,ddl,ddr,vr,hd,vl,hu: 24% 15% 42%  3%  3%  4%  3%  3%  3%
[libx264 @ 0x564255e30fc0] i4 v,h,dc,ddl,ddr,vr,hd,vl,hu: 31% 22% 16%  5%  6%  7%  5%  5%  3%
[libx264 @ 0x564255e30fc0] i8c dc,h,v,p: 62% 17% 18%  2%
[libx264 @ 0x564255e30fc0] Weighted P-Frames: Y:1.5% UV:1.0%
[libx264 @ 0x564255e30fc0] ref P L0: 68.6% 31.4%
[libx264 @ 0x564255e30fc0] ref B L0: 83.9% 16.1%
[libx264 @ 0x564255e30fc0] ref B L1: 95.6%  4.4%
[libx264 @ 0x564255e30fc0] kb/s:1317.57
[aac @ 0x564255e10800] Qavg: 624.066
